<svg xmlns="http://www.w3.org/2000/svg" width="168.883" height="198.365" viewBox="0 0 168.883 198.365">
  <g id="Group_337" data-name="Group 337" transform="translate(-409.117 -823)">
    <path id="Path_1067" data-name="Path 1067" d="M1121.069,931.92c13.872-5.638,31.008-5.718,42.228-15.215,9.356-7.919,12.162-20.852,10.039-32.4a40.653,40.653,0,0,0-11.768-22.32c-11.031-10.395-27.947-13.471-43.709-13.118-8.971.2-17.914.957-26.836,1.8-2.2.209-4.387.472-6.584.687-1.982.194-3.952.313-5.952.453a81.829,81.829,0,0,0-12.436,1.8,67.528,67.528,0,0,0-8.5,2.515,52.9,52.9,0,0,0-18.458,11.331,27.428,27.428,0,0,0-5.53,7.36q-.382.76-.712,1.543c-2.757,6.549-2.263,13.939-.279,20.724s5.372,13.133,8.4,19.583c5.7,12.168,10.247,24.973,18.484,35.836,2.967,3.914,6.618,7.682,11.493,9.287,8.511,2.8,17.874-1.85,24.224-7.784s11.178-13.317,18.491-18.217A40.938,40.938,0,0,1,1121.069,931.92Z" transform="matrix(0.485, 0.875, -0.875, 0.485, 751.24, -472.132)" fill="#79a6b2"/>
    <g id="Group_124" data-name="Group 124" transform="translate(-4.066 1)">
      <g id="Group_122" data-name="Group 122" transform="translate(-21)">
        <path id="Path_487" data-name="Path 487" d="M542.833,843.833c-14.617,0-21.833,7.4-21.833,21.832,0-14.431-6.661-21.832-21.833-21.832C514.339,843.833,521,837.172,521,822,521,836.987,528.216,843.833,542.833,843.833Z" fill="#fff"/>
        <path id="Path_488" data-name="Path 488" d="M487.947,937.448a17.52,17.52,0,0,0-.673-10.861c-4.637-11.728-13.679-39.4-.046-48.648,13.363-9.062,23.72.529,33.772.529v64.488s-11.325.363-16.921,21.076-9.652,19.857-13.134,18.861C487.692,981.962,481.354,963.076,487.947,937.448Z" fill="#fff"/>
        <path id="Path_489" data-name="Path 489" d="M554.587,937.389a17.5,17.5,0,0,1,.639-10.76c4.559-11.7,13.47-39.435-.178-48.69-13.364-9.062-23.467.529-34.048.529v64.488s11.6.363,17.2,21.076,9.789,19.857,13.271,18.861C554.724,981.961,561.189,963.047,554.587,937.389Z" fill="#e5f5fe"/>
        <path id="Path_490" data-name="Path 490" d="M585.137,919.025c-6.812,0-10.175,3.449-10.175,10.176,0-6.727-3.1-10.176-10.176-10.176,7.071,0,10.176-3.105,10.176-10.176C574.962,915.834,578.325,919.025,585.137,919.025Z" fill="#fff"/>
      </g>
    </g>
  </g>
</svg>
