<svg xmlns="http://www.w3.org/2000/svg" width="201.887" height="159.272" viewBox="0 0 201.887 159.272">
  <g id="Group_336" data-name="Group 336" transform="translate(-59.899 -312.364)">
    <rect id="Rectangle_191" data-name="Rectangle 191" width="201.887" height="13.916" rx="6.311" transform="translate(59.899 457.72)" fill="#8fba54"/>
    <path id="Path_1069" data-name="Path 1069" d="M182.708,320.282H163.415a2.088,2.088,0,0,1-1.956-2.189l-.244.509c.116-2.03,1.124-3.355,2.2-3.355h19.293a2.089,2.089,0,0,1,1.957,2.189v.657A2.089,2.089,0,0,1,182.708,320.282Z" transform="translate(10.395 0.296)" fill="#5d8146"/>
    <path id="Path_1070" data-name="Path 1070" d="M181.958,315.248H168.986a5.5,5.5,0,0,1,.522,2.154,3.537,3.537,0,0,1-.4,1.807,3.476,3.476,0,0,1-.576,1.073h13.43a2.089,2.089,0,0,0,1.957-2.189v-.657A2.089,2.089,0,0,0,181.958,315.248Z" transform="translate(11.145 0.296)" fill="#5d8146"/>
    <path id="Path_1071" data-name="Path 1071" d="M169.657,315.708v-3.344h-.938v2.107A4.324,4.324,0,0,1,169.657,315.708Z" transform="translate(11.165)" fill="#777"/>
    <path id="Path_1072" data-name="Path 1072" d="M168.719,320.9v1.546h.938v-2.785A4.319,4.319,0,0,1,168.719,320.9Z" transform="translate(11.165 0.749)" fill="#777"/>
    <path id="Path_1073" data-name="Path 1073" d="M169.835,312.364c-1.308,0-2.374,1.215-2.845,3.18h0c1.709,0,2.991.751,2.959,2.517h0a2.5,2.5,0,0,1-2.8,2.517h0c.5,1.844,1.426,2.621,2.683,2.621,1.733,0,3.139-2.426,3.139-5.418S171.568,312.364,169.835,312.364Z" transform="translate(10.987)" fill="#8fba54"/>
    <path id="Path_1074" data-name="Path 1074" d="M168.984,312.364c-1.309,0-2.374,1.215-2.845,3.18h0c1.709,0,2.991.751,2.959,2.517h0a2.5,2.5,0,0,1-2.8,2.517h0c.5,1.844,1.426,2.621,2.683,2.621,1.733,0,3.138-2.426,3.138-5.418S170.717,312.364,168.984,312.364Z" transform="translate(10.9)" fill="#5d8146"/>
    <rect id="Rectangle_192" data-name="Rectangle 192" width="1.895" height="15.058" transform="translate(169.721 411.781)" fill="#383838"/>
    <ellipse id="Ellipse_40" data-name="Ellipse 40" cx="4.423" cy="7.529" rx="4.423" ry="7.529" transform="translate(165.081 411.781)" fill="#5d8146"/>
    <ellipse id="Ellipse_41" data-name="Ellipse 41" cx="4.423" cy="7.529" rx="4.423" ry="7.529" transform="translate(166.977 411.781)" fill="#4b6d35"/>
    <path id="Path_1075" data-name="Path 1075" d="M158.772,371.761c-.626-.011-1.247.018-1.865.064,14.472,1.612,25.686,18.785,25.388,39.531s-12,37.508-26.512,38.6c.615.068,1.235.119,1.861.131,15.36.276,28.064-17.033,28.375-38.662S174.132,372.038,158.772,371.761Z" transform="translate(9.838 6.094)" fill="#b0ada6"/>
    <path id="Path_1076" data-name="Path 1076" d="M161.594,365.244c-19.2-.345-34.116,18.66-34.5,45.7s14.179,47,33.38,47.345,32.99-19.657,33.379-46.693S180.794,365.591,161.594,365.244Zm-1,85.51c-15.36-.277-27.559-18.034-27.249-39.663s13.015-38.937,28.375-38.662,27.559,18.034,27.249,39.663S175.95,451.03,160.59,450.754Z" transform="translate(6.893 5.425)" fill="#5d8146"/>
    <path id="Path_1077" data-name="Path 1077" d="M162.494,370.364c-15.755,0-28.528,18.223-28.528,40.7s12.773,40.7,28.528,40.7,28.526-18.223,28.526-40.7S178.249,370.364,162.494,370.364Zm0,78.749c-14.727,0-26.666-17.034-26.666-38.046s11.939-38.046,26.666-38.046,26.665,17.034,26.665,38.046S177.22,449.113,162.494,449.113Z" transform="translate(7.599 5.951)" fill="#ebebeb"/>
    <path id="Path_1078" data-name="Path 1078" d="M160.76,421.61l-.38-.126a2.023,2.023,0,0,1-1.9-2.119V360.6l3.01-41.859a2.023,2.023,0,0,1,1.9-2.12h1.153a2.023,2.023,0,0,1,1.9,2.12l-3.009,43.1v57.524C163.345,421.264,161.8,421.61,160.76,421.61Z" transform="translate(10.115 0.436)" fill="#5d8146"/>
    <path id="Path_1079" data-name="Path 1079" d="M172.836,415.288c.039-1.7-.623-2.891-2.132-2.917l-56.622.044V366.509c0-5.073,3.677-9.186,8.213-9.186H172.2v-6.36h-49.91c-7.676,0-13.9,6.96-13.9,15.546v36.745h-1.833c-5.8,0-10.926,4.145-12.759,10.3l-8.526,28.616a1.422,1.422,0,0,1-1.853,1.02l-15.48-6.02a2.285,2.285,0,0,0-2.975,1.61l-.512.27a3.4,3.4,0,0,0,1.4,4.044l15.775,6.138c3.712,1.444,7.765-.785,9.007-4.956L99.2,415.561a7.892,7.892,0,0,1,7.365-5.947H108.4v4.77a3.53,3.53,0,0,0,3.317,3.709h58.555A2.73,2.73,0,0,0,172.836,415.288Z" transform="translate(0.446 3.96)" fill="#8fba54"/>
    <path id="Path_1080" data-name="Path 1080" d="M162.8,333.385h43.1l-3.166,55.244h-42.09v-29.5Z" transform="translate(10.337 2.157)" fill="#8fba54"/>
    <rect id="Rectangle_193" data-name="Rectangle 193" width="60.809" height="6.006" rx="2.724" transform="translate(111.526 392.198)" fill="#5d8146"/>
    <g id="Group_332" data-name="Group 332" transform="translate(99.59 426.066)">
      <path id="Path_1081" data-name="Path 1081" d="M108.025,419.408a3.6,3.6,0,0,0-.882-2.472,3.953,3.953,0,0,1-1.1-1.45c-7.4,2.325-9.564,16.911-10.135,22.778a2.062,2.062,0,0,0,1.762,2.34h0c1.012.074,3.436-.738,3.549-1.866C101.887,432.162,102.71,419.561,108.025,419.408Z" transform="translate(-95.897 -415.486)" fill="#4b6d35"/>
    </g>
    <path id="Path_1082" data-name="Path 1082" d="M107.866,450.726a6.656,6.656,0,0,1-6.1-2.992c-5.066-6.9-2.672-21.852,7.307-23.073.024,0,.046,0,.071,0a13.542,13.542,0,0,0-1.41-1.654l-.241-2.116-5.063.118c-5.726,0-10.368,7.435-10.368,16.606S96.627,454.1,102.353,454.1H107.5l.241-2.116a13.4,13.4,0,0,0,1.329-1.544A5.709,5.709,0,0,1,107.866,450.726Z" transform="translate(3.3 11.134)" fill="#8fba54"/>
    <path id="Path_1083" data-name="Path 1083" d="M106.066,425.8a4.656,4.656,0,0,0-2.17.557c2.794,1.463,4.815,5.666,4.815,10.631s-2.021,9.168-4.815,10.631a4.655,4.655,0,0,0,2.17.557c3.858,0,6.985-5.009,6.985-11.188S109.924,425.8,106.066,425.8Z" transform="translate(4.514 11.639)" fill="#797979"/>
    <path id="Path_1084" data-name="Path 1084" d="M109.434,438.756l-8.186-.147a2.5,2.5,0,0,1-2.686-2.184h0a2.476,2.476,0,0,1,2.747-2.087l8.187.148a2.247,2.247,0,0,1,2.276,2.356l-.366.153C111.387,438.17,110.928,438.784,109.434,438.756Z" transform="translate(3.967 12.514)" fill="#383838"/>
    <path id="Path_1085" data-name="Path 1085" d="M106.829,420.886c-5.726,0-10.368,7.435-10.368,16.606S101.1,454.1,106.829,454.1s10.368-7.434,10.368-16.605S112.555,420.886,106.829,420.886Zm0,27.794c-3.858,0-6.985-5.009-6.985-11.188s3.127-11.188,6.985-11.188,6.985,5.009,6.985,11.188S110.687,448.68,106.829,448.68Z" transform="translate(3.751 11.134)" fill="#5d8146"/>
    <path id="Path_1086" data-name="Path 1086" d="M68.554,432.509l16.076,7.684s42.133.619,41.956,0-20.934-9.186-20.934-9.186Z" transform="translate(0.888 12.173)" fill="#5d8146"/>
    <g id="Group_333" data-name="Group 333" transform="translate(104.914 425.741)">
      <path id="Path_1087" data-name="Path 1087" d="M112.173,417.7a5.224,5.224,0,0,0-4.548-2.513c-2.935,0-5.181,1.744-6.9,4.32a8.269,8.269,0,0,1,6.782-.073c.04,0,.078-.008.118-.008a1.572,1.572,0,0,1,1.482.765c1.793,2.758.573,11.474-1.041,17.832a2.171,2.171,0,0,0,1.24,2.59h0a1.873,1.873,0,0,0,2.41-1.437C113.033,434.048,115.411,422.683,112.173,417.7Z" transform="translate(-100.725 -415.191)" fill="#5d8146"/>
    </g>
    <rect id="Rectangle_194" data-name="Rectangle 194" width="5.677" height="11.88" rx="2.574" transform="translate(108.841 415.974)" fill="#8fba54"/>
    <path id="Path_1088" data-name="Path 1088" d="M199.724,421.61l-.38-.126a2.023,2.023,0,0,1-1.9-2.119V360.6l3.009-41.859a2.023,2.023,0,0,1,1.9-2.12h1.154a2.023,2.023,0,0,1,1.9,2.12l-3.009,43.1v57.524C202.309,421.264,200.766,421.61,199.724,421.61Z" transform="translate(14.112 0.436)" fill="#4b6d35"/>
    <rect id="Rectangle_195" data-name="Rectangle 195" width="58.871" height="13.273" rx="6.019" transform="translate(110.793 383.204)" fill="#8fba54"/>
    <path id="Path_1089" data-name="Path 1089" d="M165.8,332.478v0Z" transform="translate(10.866 2.064)" opacity="0.16"/>
    <path id="Path_1090" data-name="Path 1090" d="M169.66,335.011c.161.046.265.069.265.069A1.693,1.693,0,0,0,169.66,335.011Z" transform="translate(11.261 2.324)" fill="#e5a185"/>
    <rect id="Rectangle_196" data-name="Rectangle 196" width="61.432" height="13.273" rx="6.019" transform="translate(152.747 383.204)" fill="#5d8146"/>
    <rect id="Rectangle_197" data-name="Rectangle 197" width="62.018" height="6.006" rx="2.724" transform="translate(154.487 392.198)" fill="#4b6d35"/>
    <g id="Group_334" data-name="Group 334" transform="translate(142.551 426.066)">
      <path id="Path_1091" data-name="Path 1091" d="M146.988,419.408a3.59,3.59,0,0,0-.881-2.472,3.953,3.953,0,0,1-1.1-1.45c-7.4,2.325-9.564,16.911-10.136,22.778a2.062,2.062,0,0,0,1.763,2.34h0c1.012.074,3.436-.738,3.55-1.866C140.85,432.162,141.674,419.561,146.988,419.408Z" transform="translate(-134.86 -415.486)" fill="#4b6d35"/>
    </g>
    <path id="Path_1092" data-name="Path 1092" d="M200.557,365.244c-19.2-.345-34.114,18.66-34.5,45.7s14.179,47,33.38,47.345,32.99-19.657,33.378-46.693S219.758,365.591,200.557,365.244Zm-1,85.51c-15.36-.277-27.561-18.034-27.25-39.663s13.015-38.937,28.375-38.662,27.561,18.034,27.25,39.663S214.913,451.03,199.554,450.754Z" transform="translate(10.891 5.425)" fill="#5d8146"/>
    <path id="Path_1093" data-name="Path 1093" d="M197.735,371.761c-.626-.011-1.246.018-1.863.064,14.472,1.612,25.686,18.785,25.387,39.531s-12,37.508-26.511,38.6c.615.068,1.234.119,1.861.131,15.359.276,28.063-17.033,28.375-38.662S213.1,372.038,197.735,371.761Z" transform="translate(13.835 6.094)" fill="#b0ada6"/>
    <path id="Path_1094" data-name="Path 1094" d="M201.456,370.364c-15.755,0-28.526,18.223-28.526,40.7s12.771,40.7,28.526,40.7,28.528-18.223,28.528-40.7S217.212,370.364,201.456,370.364Zm0,78.749c-14.726,0-26.665-17.034-26.665-38.046s11.939-38.046,26.665-38.046,26.666,17.034,26.666,38.046S216.184,449.113,201.456,449.113Z" transform="translate(11.597 5.951)" fill="#ebebeb"/>
    <ellipse id="Ellipse_42" data-name="Ellipse 42" cx="4.423" cy="7.529" rx="4.423" ry="7.529" transform="translate(208.186 409.661)" fill="#4b6d35"/>
    <rect id="Rectangle_198" data-name="Rectangle 198" width="1.895" height="15.058" transform="translate(212.826 409.661)" fill="#4b6d35"/>
    <ellipse id="Ellipse_43" data-name="Ellipse 43" cx="4.422" cy="7.529" rx="4.422" ry="7.529" transform="translate(210.081 409.661)" fill="#5d8146"/>
    <path id="Path_1095" data-name="Path 1095" d="M201.856,407.692c0,1.518-.723,2.749-1.615,2.749s-1.615-1.23-1.615-2.749.723-2.75,1.615-2.75S201.856,406.172,201.856,407.692Z" transform="translate(14.233 9.498)" fill="#4b6d35"/>
    <rect id="Rectangle_199" data-name="Rectangle 199" width="0.692" height="5.499" transform="translate(214.691 414.44)" fill="#383838"/>
    <ellipse id="Ellipse_44" data-name="Ellipse 44" cx="1.615" cy="2.75" rx="1.615" ry="2.75" transform="translate(213.551 414.44)" fill="#5d8146"/>
    <path id="Path_1096" data-name="Path 1096" d="M146.83,450.726a6.657,6.657,0,0,1-6.1-2.992c-5.065-6.9-2.67-21.852,7.308-23.073.024,0,.046,0,.069,0A13.445,13.445,0,0,0,146.7,423l-.24-2.116L141.4,421c-5.726,0-10.368,7.435-10.368,16.606s4.561,16.487,10.287,16.487h5.144l.24-2.116a13.3,13.3,0,0,0,1.329-1.544A5.715,5.715,0,0,1,146.83,450.726Z" transform="translate(7.298 11.134)" fill="#8fba54"/>
    <path id="Path_1097" data-name="Path 1097" d="M145.03,425.8a4.656,4.656,0,0,0-2.17.557c2.794,1.463,4.815,5.666,4.815,10.631s-2.021,9.168-4.815,10.631a4.655,4.655,0,0,0,2.17.557c3.857,0,6.985-5.009,6.985-11.188S148.887,425.8,145.03,425.8Z" transform="translate(8.512 11.639)" fill="#797979"/>
    <path id="Path_1098" data-name="Path 1098" d="M148.4,438.756l-8.187-.147a2.5,2.5,0,0,1-2.686-2.184h0a2.477,2.477,0,0,1,2.748-2.087l8.187.148a2.248,2.248,0,0,1,2.276,2.356l-.367.153C150.352,438.17,149.892,438.784,148.4,438.756Z" transform="translate(7.964 12.514)" fill="#4b6d35"/>
    <path id="Path_1099" data-name="Path 1099" d="M145.793,420.886c-5.726,0-10.368,7.435-10.368,16.606s4.642,16.605,10.368,16.605,10.367-7.434,10.367-16.605S151.517,420.886,145.793,420.886Zm0,27.794c-3.858,0-6.986-5.009-6.986-11.188s3.128-11.188,6.986-11.188,6.985,5.009,6.985,11.188S149.65,448.68,145.793,448.68Z" transform="translate(7.749 11.134)" fill="#5d8146"/>
    <g id="Group_335" data-name="Group 335" transform="translate(147.875 425.741)">
      <path id="Path_1100" data-name="Path 1100" d="M151.137,417.7a5.224,5.224,0,0,0-4.548-2.513c-2.935,0-5.181,1.744-6.9,4.32a8.269,8.269,0,0,1,6.782-.073c.04,0,.078-.008.118-.008a1.572,1.572,0,0,1,1.482.765c1.793,2.758.572,11.474-1.041,17.832a2.17,2.17,0,0,0,1.24,2.59h0a1.872,1.872,0,0,0,2.409-1.437C152,434.048,154.373,422.683,151.137,417.7Z" transform="translate(-139.689 -415.191)" fill="#4b6d35"/>
    </g>
    <path id="Path_1101" data-name="Path 1101" d="M146.089,418.214h0c-1.561,0-2.839.283-2.839-1.278v-7.764a2.847,2.847,0,0,1,2.839-2.838h0a2.846,2.846,0,0,1,2.838,2.838l-.3,7.478C148.623,418.217,147.656,418.214,146.089,418.214Z" transform="translate(8.552 9.641)" fill="#4b6d35"/>
    <path id="Path_1102" data-name="Path 1102" d="M221.687,320.282H202.394a2.089,2.089,0,0,1-1.957-2.189l-.244.509c.116-2.03,1.125-3.355,2.2-3.355h19.293a2.088,2.088,0,0,1,1.956,2.189v.657A2.088,2.088,0,0,1,221.687,320.282Z" transform="translate(14.394 0.296)" fill="#4b6d35"/>
    <path id="Path_1103" data-name="Path 1103" d="M220.937,315.248H207.964a5.478,5.478,0,0,1,.523,2.154,3.526,3.526,0,0,1-.4,1.807,3.453,3.453,0,0,1-.576,1.073h13.431a2.088,2.088,0,0,0,1.956-2.189v-.657A2.088,2.088,0,0,0,220.937,315.248Z" transform="translate(15.144 0.296)" fill="#5d8146"/>
    <path id="Path_1104" data-name="Path 1104" d="M208.636,315.708v-3.344H207.7v2.107A4.327,4.327,0,0,1,208.636,315.708Z" transform="translate(15.164)" fill="#777"/>
    <path id="Path_1105" data-name="Path 1105" d="M207.7,320.9v1.546h.939v-2.785A4.322,4.322,0,0,1,207.7,320.9Z" transform="translate(15.164 0.749)" fill="#777"/>
    <path id="Path_1106" data-name="Path 1106" d="M208.814,312.364c-1.309,0-2.374,1.215-2.846,3.18h0c1.709,0,2.992.751,2.96,2.517h0a2.5,2.5,0,0,1-2.8,2.517h0c.5,1.844,1.427,2.621,2.684,2.621,1.733,0,3.138-2.426,3.138-5.418S210.547,312.364,208.814,312.364Z" transform="translate(14.987)" fill="#8fba54"/>
    <path id="Path_1107" data-name="Path 1107" d="M207.962,312.364c-1.308,0-2.374,1.215-2.845,3.18h0c1.709,0,2.991.751,2.959,2.517h0a2.5,2.5,0,0,1-2.8,2.517h0c.5,1.844,1.427,2.621,2.683,2.621,1.733,0,3.139-2.426,3.139-5.418S209.695,312.364,207.962,312.364Z" transform="translate(14.899)" fill="#5d8146"/>
    <path id="Path_1108" data-name="Path 1108" d="M124.553,441.385H82.7a2.911,2.911,0,0,1-2.9-2.9h0c0-1.6-.628-6.777.968-6.777l43.791,3.873a2.911,2.911,0,0,1,2.9,2.9h0A2.911,2.911,0,0,1,124.553,441.385Z" transform="translate(2.029 12.244)" fill="#5d8146"/>
    <rect id="Rectangle_200" data-name="Rectangle 200" width="47.662" height="5.806" rx="2.633" transform="translate(64.782 440.928)" fill="#5d8146"/>
    <path id="Path_1109" data-name="Path 1109" d="M211.78,415.288c.039-1.7-.624-3.03-2.134-3.057l-56.621.184V366.509c0-5.073,3.677-9.186,8.213-9.186h49.911v-6.36H161.239c-7.676,0-13.9,6.96-13.9,15.546v36.745h-1.831c-5.8,0-10.926,4.145-12.759,10.3l-8.527,28.616a1.421,1.421,0,0,1-1.852,1.02l-15.48-6.02a2.284,2.284,0,0,0-2.975,1.61l-.408,1.31a2.44,2.44,0,0,0,1.3,3l15.776,6.138c3.712,1.444,7.764-.785,9.007-4.956l8.554-28.712a7.891,7.891,0,0,1,7.365-5.947h1.831v4.77a3.53,3.53,0,0,0,3.318,3.709h58.554A2.73,2.73,0,0,0,211.78,415.288Z" transform="translate(4.462 3.96)" fill="#4b6d35"/>
  </g>
</svg>
