<svg xmlns="http://www.w3.org/2000/svg" width="76.375" height="69.227" viewBox="0 0 76.375 69.227"><g data-name="map icon" transform="translate(-1799.88 -28)"><path data-name="Path 3733" d="M1829.95 54.767l-30.07 36.19V50.69c0-2.4 2.355-4.35 5.257-4.35h15.1z" fill="#d9d9d6"/><path data-name="Path 3734" d="M1831.558 52.828l-15.427-6.487h20.821z" fill="#d9d9d6"/><path data-name="Path 3735" d="M1875.841 48.989l-13.365 16.846-28.59-12.027 6.205-7.468h30.906a5.38 5.38 0 014.844 2.649z" fill="#d9d9d6"/><path data-name="Path 3736" d="M1876.255 52.35v19.282l-11.472-4.827z" fill="#d9d9d6"/><path data-name="Path 3737" d="M1851.724 97.227h-46.587a5.3 5.3 0 01-4.943-2.87l12.677-15.258z" fill="#d9d9d6"/><path data-name="Path 3738" d="M1876.255 74.244v18.634c0 2.4-2.355 4.349-5.258 4.349h-13.57l-42.964-20.039 17.814-21.44z" fill="#d9d9d6"/><path data-name="Path 3739" d="M1839.41 77.656s21.284-20.69 17.879-35.731-17.879-13.904-17.879-13.904-14.473-1.136-17.879 13.9 17.879 35.731 17.879 35.731" fill="#797d83"/><circle data-name="Ellipse 75" cx="8.142" cy="8.142" r="8.142" transform="translate(1831.268 36.818)" fill="#fff"/></g></svg>