<svg xmlns="http://www.w3.org/2000/svg" width="146.123" height="168.028" viewBox="0 0 146.123 168.028">
  <g id="Group_161" data-name="Group 161" transform="translate(-117.877 -829.233)">
    <g id="Group_155" data-name="Group 155">
      <path id="Rectangle_46" data-name="Rectangle 46" d="M3.978,0H103.3a3.976,3.976,0,0,1,3.976,3.976V143.609a3.977,3.977,0,0,1-3.977,3.977H3.977A3.977,3.977,0,0,1,0,143.608V3.978A3.978,3.978,0,0,1,3.978,0Z" transform="translate(156.722 843.781)" fill="#2f4d4f"/>
      <path id="Rectangle_47" data-name="Rectangle 47" d="M3.978,0H103.3a3.979,3.979,0,0,1,3.979,3.979V143.609a3.977,3.977,0,0,1-3.977,3.977H3.978A3.978,3.978,0,0,1,0,143.608V3.978A3.978,3.978,0,0,1,3.978,0Z" transform="translate(154.757 843.781)" fill="#385b60"/>
      <rect id="Rectangle_48" data-name="Rectangle 48" width="92.68" height="131.775" transform="translate(164.086 852.693)" fill="#221f20" opacity="0.1" style="mix-blend-mode: multiply;isolation: isolate"/>
      <rect id="Rectangle_49" data-name="Rectangle 49" width="92.68" height="131.776" transform="translate(162.87 851.455)" fill="#fff"/>
      <g id="Group_151" data-name="Group 151">
        <path id="Path_550" data-name="Path 550" d="M231,844.95H218.983v-6.456a9.261,9.261,0,0,0-18.523,0v6.456H188.444a6.366,6.366,0,0,0-6.365,6.366V857.3h55.286v-5.987A6.366,6.366,0,0,0,231,844.95Zm-22.4-1.774a4.681,4.681,0,1,1,4.683-4.682A4.679,4.679,0,0,1,208.6,843.176Z" fill="#9fa1a3"/>
        <path id="Path_551" data-name="Path 551" d="M229.876,844.95H217.861v-6.456a9.261,9.261,0,0,0-18.523,0v6.456H187.319a6.367,6.367,0,0,0-6.364,6.366V857.3h55.286v-5.987A6.366,6.366,0,0,0,229.876,844.95ZM208.6,843.176a4.681,4.681,0,1,1,4.683-4.682A4.679,4.679,0,0,1,208.6,843.176Z" fill="#ced0d1"/>
        <rect id="Rectangle_50" data-name="Rectangle 50" width="55.286" height="5.987" transform="translate(180.955 851.316)" fill="#c3c5c6"/>
        <path id="Path_552" data-name="Path 552" d="M208.6,833.814a4.6,4.6,0,0,1,.7.058,4.676,4.676,0,0,0,0,9.247,4.881,4.881,0,0,1-.7.057,4.681,4.681,0,0,1,0-9.362Z" fill="#9fa1a3"/>
      </g>
      <g id="Group_154" data-name="Group 154">
        <rect id="Rectangle_51" data-name="Rectangle 51" width="70.687" height="4.04" transform="translate(174.394 899.283)" fill="#9ea0a2" opacity="0.5"/>
        <rect id="Rectangle_52" data-name="Rectangle 52" width="70.687" height="4.041" transform="translate(174.394 905.977)" fill="#9ea0a2" opacity="0.5"/>
        <path id="Path_553" data-name="Path 553" d="M185.859,944.454h-10.99a1.218,1.218,0,0,1-1.217-1.216l.233-10.393a1.216,1.216,0,0,1,1.216-1.207h10.758a1.217,1.217,0,0,1,1.216,1.216v10.384A1.217,1.217,0,0,1,185.859,944.454ZM175.1,932.48a.375.375,0,0,0-.374.374l-.233,10.393a.372.372,0,0,0,.375.365h10.99a.373.373,0,0,0,.374-.374V932.854a.374.374,0,0,0-.374-.374Z" fill="#c8c9cb"/>
        <path id="Path_554" data-name="Path 554" d="M179.382,942.058h-.011a.935.935,0,0,1-.773-.431,17.59,17.59,0,0,0-2.814-3.4.93.93,0,1,1,1.187-1.433,16.558,16.558,0,0,1,2.428,2.72c2.841-3.686,6.865-6.615,8.759-7.2a.93.93,0,1,1,.548,1.778,13.948,13.948,0,0,0-3.878,2.485,25.247,25.247,0,0,0-4.675,5.065A.93.93,0,0,1,179.382,942.058Z" fill="#83b3bf"/>
        <path id="Path_555" data-name="Path 555" d="M184.731,964.294H173.974a1.218,1.218,0,0,1-1.218-1.216l.466-10.4a1.213,1.213,0,0,1,1.216-1.2H185.2a1.218,1.218,0,0,1,1.216,1.217l-.465,10.4A1.213,1.213,0,0,1,184.731,964.294ZM174.438,952.32a.373.373,0,0,0-.374.373l-.466,10.4a.372.372,0,0,0,.376.358h10.757a.375.375,0,0,0,.373-.375l.466-10.4a.371.371,0,0,0-.375-.355Z" fill="#c8c9cb"/>
        <path id="Path_556" data-name="Path 556" d="M178.718,961.9h-.012a.928.928,0,0,1-.771-.43,17.688,17.688,0,0,0-2.815-3.4.931.931,0,1,1,1.188-1.433,16.678,16.678,0,0,1,2.428,2.719c2.841-3.684,6.865-6.613,8.759-7.2a.93.93,0,1,1,.547,1.778,13.88,13.88,0,0,0-3.877,2.484,25.26,25.26,0,0,0-4.676,5.066A.93.93,0,0,1,178.718,961.9Z" fill="#83b3bf"/>
        <rect id="Rectangle_53" data-name="Rectangle 53" width="70.687" height="4.04" transform="translate(174.394 912.671)" fill="#9ea0a2" opacity="0.5"/>
        <rect id="Rectangle_54" data-name="Rectangle 54" width="42.238" height="4.04" transform="translate(174.394 919.366)" fill="#9ea0a2" opacity="0.5"/>
        <rect id="Rectangle_55" data-name="Rectangle 55" width="53.697" height="4.039" transform="translate(190.677 932.988)" fill="#9ea0a2" opacity="0.5"/>
        <rect id="Rectangle_56" data-name="Rectangle 56" width="31.806" height="4.041" transform="translate(190.677 939.052)" fill="#9ea0a2" opacity="0.5"/>
        <path id="Path_557" data-name="Path 557" d="M242.78,956.867h-53l.235-4.038h53Z" fill="#9ea0a2" opacity="0.5"/>
        <path id="Path_558" data-name="Path 558" d="M221.587,962.931h-32.04l.232-4.04h32.041Z" fill="#9ea0a2" opacity="0.5"/>
        <g id="Group_153" data-name="Group 153">
          <g id="Group_152" data-name="Group 152">
            <path id="Path_559" data-name="Path 559" d="M223.057,878.6a12.7,12.7,0,1,1-12.7-12.7A12.7,12.7,0,0,1,223.057,878.6Z" fill="#83b3bf"/>
          </g>
          <path id="Path_560" data-name="Path 560" d="M212.676,869.8l0,.008h-4.633v6.473h-6.473v4.639h.007l-.006,0,6.472,5.558v.912h.049l-.043,0,4.348,3.735a12.7,12.7,0,0,0,10.66-12.415Z" fill="#ececed" style="mix-blend-mode: multiply;isolation: isolate"/>
          <path id="Path_561" data-name="Path 561" d="M219.154,876.279h-6.473v-6.473h-4.64v6.473h-6.473v4.64h6.473v6.473h4.64v-6.473h6.473Z" fill="#fff"/>
        </g>
      </g>
    </g>
    <g id="Group_160" data-name="Group 160">
      <g id="Group_158" data-name="Group 158">
        <g id="Group_156" data-name="Group 156">
          <path id="Path_562" data-name="Path 562" d="M257.821,850.838a18.784,18.784,0,0,0-8.694-10.432,22.859,22.859,0,0,0-13.484-2.767,17.109,17.109,0,0,0-7.625,2.765,18.005,18.005,0,0,0-3.605,3.377h6.319a13.063,13.063,0,0,1,5.343-1.846c8.021-.806,15.439,3.5,17.641,10.244a30.714,30.714,0,0,1,1.259,11.109,83.629,83.629,0,0,1-1.177,9.8c-.56,3.31-1.148,6.923-1.772,10.748-.68,4.172-1.4,8.6-2.162,13.093a3.45,3.45,0,0,1,2.142-.26,3.327,3.327,0,0,1,2.082,1.184c.775-4.579,1.509-9.079,2.2-13.323.622-3.818,1.21-7.425,1.768-10.721a87.865,87.865,0,0,0,1.231-10.3A34.982,34.982,0,0,0,257.821,850.838Z" fill="#46717a"/>
        </g>
        <g id="Group_157" data-name="Group 157">
          <path id="Path_563" data-name="Path 563" d="M261.3,915.8a12.621,12.621,0,1,1-10.193-14.651A12.622,12.622,0,0,1,261.3,915.8Z" fill="#a0a2a4"/>
          <path id="Path_564" data-name="Path 564" d="M260.044,915.573a11.341,11.341,0,1,1-9.16-13.163A11.342,11.342,0,0,1,260.044,915.573Z" fill="#e5e6e7"/>
          <path id="Path_565" data-name="Path 565" d="M244.177,910.126l-3.129-4.738a11.25,11.25,0,0,0-3.216,5.7l5.415,1.009A5.772,5.772,0,0,1,244.177,910.126Z" fill="#f5f5f5"/>
          <path id="Path_566" data-name="Path 566" d="M253.918,916.514a5.8,5.8,0,0,1-1.342,1.563l1.949,5.326a11.359,11.359,0,0,0,4.446-4.653Z" fill="#f5f5f5"/>
          <path id="Path_567" data-name="Path 567" d="M249.915,907.809a5.791,5.791,0,0,1,2.737,1.316l1.789-9.977c.2-1.094-.894-2.2-2.435-2.479s-2.949.385-3.145,1.478l-1.772,9.88A5.786,5.786,0,0,1,249.915,907.809Z" fill="#acaeb0"/>
          <path id="Path_568" data-name="Path 568" d="M249.915,907.809a5.655,5.655,0,0,1,.885.253l2-11.152a3.686,3.686,0,0,0-.794-.241c-1.541-.277-2.949.385-3.145,1.478l-1.772,9.88A5.786,5.786,0,0,1,249.915,907.809Z" fill="#cbcdcd"/>
          <path id="Path_569" data-name="Path 569" d="M254.644,914.6a5.854,5.854,0,1,1-4.729-6.8A5.854,5.854,0,0,1,254.644,914.6Z" fill="#acaeb0"/>
          <path id="Path_570" data-name="Path 570" d="M253.169,914.341a4.356,4.356,0,1,1-3.518-5.058A4.357,4.357,0,0,1,253.169,914.341Z" fill="#f7f7f8"/>
        </g>
      </g>
      <g id="Group_159" data-name="Group 159">
        <path id="Path_571" data-name="Path 571" d="M133.562,855.743a2.373,2.373,0,0,0,.145.473,18.131,18.131,0,0,0-8.091,2.96c-2.846,1.936-4.517,4.378-4.7,6.874-1.028,13.842,3.81,32.49,6.411,42.507.181.7.349,1.351.507,1.967l-2.819.672c-.154-.6-.317-1.23-.494-1.91-2.64-10.18-7.558-29.13-6.495-43.45.252-3.4,2.368-6.611,5.962-9.055a20.725,20.725,0,0,1,10.638-3.527A2.313,2.313,0,0,0,133.562,855.743Z" fill="#bcbec0"/>
        <path id="Path_572" data-name="Path 572" d="M133.562,855.743a2.245,2.245,0,0,0,.679,1.234,17.869,17.869,0,0,0-7.839,2.871c-2.72,1.85-4.316,4.206-4.5,6.636-1.028,13.845,3.812,32.5,6.413,42.516l.343,1.327-2.82.673c-.1-.408-.213-.833-.329-1.272-2.641-10.181-7.56-29.134-6.5-43.457.247-3.33,2.292-6.463,5.757-8.818a20.65,20.65,0,0,1,9.045-3.35A2.252,2.252,0,0,0,133.562,855.743Z" fill="#d4d6d7"/>
        <path id="Path_573" data-name="Path 573" d="M141.18,854.674a3.065,3.065,0,0,0-3.454-2.605s-5.013.411-4.374,3.7h0c.556,2.855,5.219,2.358,5.219,2.358a3.058,3.058,0,0,0,2.609-3.452Z" fill="#3e4042"/>
        <path id="Path_574" data-name="Path 574" d="M137.726,852.069s-3.582.294-4.3,2.371a6.046,6.046,0,0,0,7.784.631,3.147,3.147,0,0,0-.026-.4A3.065,3.065,0,0,0,137.726,852.069Z" fill="#4e5052"/>
        <path id="Path_575" data-name="Path 575" d="M172.538,904.794c-.024.534-.046,1.033-.069,1.517l-2.895-.083c.022-.5.044-1.014.07-1.564.472-10.405,1.35-29.769-2.526-43.287-.707-2.464-2.9-4.565-6.165-5.913a18.017,18.017,0,0,0-8.282-1.261,2.541,2.541,0,0,0,.033-.377,2.365,2.365,0,0,0-1.772-2.3,18.584,18.584,0,0,1,3.123-.3,20.969,20.969,0,0,1,8.005,1.561c4.1,1.7,6.886,4.46,7.843,7.792C173.911,874.552,173.017,894.226,172.538,904.794Z" fill="#afb1b3"/>
        <path id="Path_576" data-name="Path 576" d="M171.7,904.932c-.024.47-.045.921-.067,1.354l-2.9-.083c.021-.453.044-.921.069-1.411.5-10.343,1.443-29.588-2.385-42.942-.671-2.34-2.715-4.324-5.754-5.579a17.839,17.839,0,0,0-8.305-1.213,2.362,2.362,0,0,0-.336-2.883c.607-.061,1.22-.1,1.842-.106a20.672,20.672,0,0,1,7.907,1.525c3.871,1.6,6.51,4.249,7.43,7.457C173.165,874.865,172.212,894.425,171.7,904.932Z" fill="#d4d6d7"/>
        <path id="Path_577" data-name="Path 577" d="M145.044,854.348a3.053,3.053,0,0,1,2.837-3.244s4.975-.616,5.019,2.719h0c.038,2.9-4.612,3.36-4.612,3.36a3.041,3.041,0,0,1-3.244-2.835Z" fill="#3e4042"/>
        <path id="Path_578" data-name="Path 578" d="M152.686,852.784c-.956-2.156-4.805-1.68-4.805-1.68a3.053,3.053,0,0,0-2.837,3.244c.006.086.018.171.03.255a6.051,6.051,0,0,0,7.612-1.819Z" fill="#4e5052"/>
        <path id="Path_579" data-name="Path 579" d="M205.839,991.367a20.529,20.529,0,0,1-7.973,1.575h-.146a24.321,24.321,0,0,1-7.766-1.252l-.068-.025a42.936,42.936,0,0,1-18.937-13.507,70.516,70.516,0,0,1-11.08-19.349,106.75,106.75,0,0,1-6.007-22.582l.041-.009c11.574-4.235,18.4-15,18.834-29.9l-4.345-.126c-.4,13.716-6.5,23.036-17.2,26.347-11.148-1.062-19.028-8.943-22.208-22.29l-4.228,1.009c3.483,14.611,12.474,23.776,24.809,25.465a109.847,109.847,0,0,0,6.248,23.565,74.929,74.929,0,0,0,11.779,20.585,47.216,47.216,0,0,0,20.851,14.861,28.363,28.363,0,0,0,9.277,1.526,23.942,23.942,0,0,0,16.1-5.894Z" fill="#46717a"/>
      </g>
    </g>
  </g>
</svg>
