<svg xmlns="http://www.w3.org/2000/svg" width="155.002" height="169.508" viewBox="0 0 155.002 169.508">
  <g id="Group_149" data-name="Group 149" transform="translate(-1638.226 -825.159)">
    <g id="Group_148" data-name="Group 148">
      <path id="Path_499" data-name="Path 499" d="M1793.214,975.237c.157,1.206-1.019,2.429-2.1,3.209-17.811,12.779-32.251,15.188-53.668,16.021-16.572.644-33.154-.344-49.656-1.815-15.818-1.41-29.282-4.084-44.786-7.665-2.106-.486-4.629-1.529-4.767-3.685-.133-2.087,2.095-3.452,4.028-4.246,13.081-5.375,23.406-3.866,37.251-5.269,11.74-1.186,23.521-1.947,35.312-2.361,23.143-.81,39.318.722,62.432,2.041a60.748,60.748,0,0,1,13.676,1.861,3.219,3.219,0,0,1,2.1,1.345A1.713,1.713,0,0,1,1793.214,975.237Z" fill="#fff"/>
      <g id="Group_147" data-name="Group 147">
        <path id="Path_500" data-name="Path 500" d="M1709.409,908.044l54.341,4-43.5,30.5-43.5-30.5Z" fill="#cc8534"/>
        <path id="Path_501" data-name="Path 501" d="M1709.107,910.585l46.336,3.407-37.091,26-37.091-26Z" fill="#f0d084" style="mix-blend-mode: multiply;isolation: isolate"/>
        <g id="Group_125" data-name="Group 125">
          <path id="Path_502" data-name="Path 502" d="M1722.057,990.259l-60.484-8.445V913.938l60.484,6.234Z" fill="#eeab72"/>
          <path id="Path_503" data-name="Path 503" d="M1763.749,978.622l-41.693,11.637v-70.3l41.693-7.921Z" fill="#eeab72"/>
          <path id="Path_504" data-name="Path 504" d="M1763.749,978.622l-41.693,11.637v-70.3l41.693-7.921Z" fill="#f0d084" style="mix-blend-mode: multiply;isolation: isolate"/>
          <path id="Path_505" data-name="Path 505" d="M1696.064,986.629l-15.857-2.214V915.859l15.857,1.867Z" fill="#df8448"/>
          <path id="Path_506" data-name="Path 506" d="M1739.809,985.338l11.518-3.132-.315-67.744-11.2,2.276Z" fill="#df8448"/>
          <path id="Path_507" data-name="Path 507" d="M1739.809,985.338l11.518-3.132-.315-67.744-11.2,2.276Z" fill="#e8ab85" style="mix-blend-mode: multiply;isolation: isolate"/>
        </g>
        <path id="Path_508" data-name="Path 508" d="M1731.816,906.65a8.564,8.564,0,0,1,3.277.8l.459-.772a3.176,3.176,0,0,0-3.063-1.436C1732.958,905.776,1731.816,906.65,1731.816,906.65Z" fill="#f6cca7"/>
        <path id="Path_509" data-name="Path 509" d="M1731.519,872.782a11.675,11.675,0,0,1,3.248,3.246l1.08-.575c.1-2.673-2.555-3.83-2.555-3.83C1733.465,872.571,1731.519,872.782,1731.519,872.782Z" fill="#f6cca7"/>
        <path id="Path_510" data-name="Path 510" d="M1659.375,848.225a20.039,20.039,0,0,1,5.568,5.566l1.851-.987c.164-4.583-4.379-6.566-4.379-6.566C1662.712,847.863,1659.375,848.225,1659.375,848.225Z" fill="#df8448" style="mix-blend-mode: multiply;isolation: isolate"/>
        <path id="Path_511" data-name="Path 511" d="M1771.371,885.6s-13.262,5.223-26.928,18.382l4.25,1.239c11.515-10.792,22.538-14.356,22.538-14.356C1767.052,891.762,1771.371,885.6,1771.371,885.6Z" fill="#f0975e"/>
        <g id="Group_126" data-name="Group 126">
          <path id="Path_512" data-name="Path 512" d="M1702.488,866.651c-5.1,10.032-5.27,17.709-5.27,17.709s10.292-4.916,13.042-10.422,1.094-13.614,1.094-13.614S1705.27,861.174,1702.488,866.651Z" fill="#df8448"/>
          <path id="Path_513" data-name="Path 513" d="M1699.006,881.366c1.727-3.374,10.154-9.587,11.378-14a20.036,20.036,0,0,0,.9-7.055s3.594,4.177,6.781,6.008,5.489,6.29.718,11.123-9.555,4.951-11.4,7.782S1699.006,881.366,1699.006,881.366Z" fill="#df8448"/>
          <path id="Path_514" data-name="Path 514" d="M1699.006,881.366c1.727-3.374,10.154-9.587,11.378-14a20.036,20.036,0,0,0,.9-7.055s3.594,4.177,6.781,6.008,5.489,6.29.718,11.123-9.555,4.951-11.4,7.782S1699.006,881.366,1699.006,881.366Z" fill="#df8448" style="mix-blend-mode: multiply;isolation: isolate"/>
          <path id="Path_515" data-name="Path 515" d="M1663.332,885.567c9.158,3.581,13.928,8.347,13.928,8.347s-10.111,3.961-15.1,1.962-8.187-9.191-8.187-9.191A10.658,10.658,0,0,1,1663.332,885.567Z" fill="#df8448"/>
          <path id="Path_516" data-name="Path 516" d="M1663.332,885.567c9.158,3.581,13.928,8.347,13.928,8.347s-10.111,3.961-15.1,1.962-8.187-9.191-8.187-9.191A10.658,10.658,0,0,1,1663.332,885.567Z" fill="#df8448" style="mix-blend-mode: multiply;isolation: isolate"/>
          <path id="Path_517" data-name="Path 517" d="M1676.275,893.546c-5.654-4.385-13.293-2.5-17.34-3.678a9.1,9.1,0,0,1-4.966-3.183,16.863,16.863,0,0,1-.732,6.879c-1.325,3.208,2.5,6.668,5.775,8.035,5.969,2.491,9.139-2.1,11.955-1.212S1676.275,893.546,1676.275,893.546Z" fill="#df8448"/>
          <path id="Path_518" data-name="Path 518" d="M1683.29,862.967c1.99,17.495,6.66,27.772,6.66,27.772s7.717-16.13,6.574-25.688S1687.242,847,1687.242,847A23.239,23.239,0,0,0,1683.29,862.967Z" fill="#df8448"/>
          <path id="Path_519" data-name="Path 519" d="M1680.072,869.49c10.753,14.7,13.222,25.5,13.222,25.5s-17.321-8.127-23.151-16.186-5.592-19.249-5.592-19.249S1674.2,861.468,1680.072,869.49Z" fill="#df8448"/>
          <path id="Path_520" data-name="Path 520" d="M1680.072,869.49c10.753,14.7,13.222,25.5,13.222,25.5s-17.321-8.127-23.151-16.186-5.592-19.249-5.592-19.249S1674.2,861.468,1680.072,869.49Z" fill="#df8448" style="mix-blend-mode: multiply;isolation: isolate"/>
          <path id="Path_521" data-name="Path 521" d="M1689.673,890.57c-3.638-4.944-18.448-14.671-21.6-21.015s-3.413-10.016-3.413-10.016-4.359,5.44-8.764,7.632-6.685,8.181,2.077,15.535,16.194,8.089,19.851,12.284S1689.673,890.57,1689.673,890.57Z" fill="#df8448"/>
          <path id="Path_522" data-name="Path 522" d="M1689.757,888.866c-3.951-11.674.5-24.307.119-31.876-.332-6.66-2.634-9.987-2.634-9.987s4.96,2.392,8.815,1.484c4.382-1.032,7.674,7.059,8.494,13.355,1.493,11.466-5.117,15.178-4.778,20.47S1689.757,888.866,1689.757,888.866Z" fill="#df8448"/>
          <path id="Path_523" data-name="Path 523" d="M1689.757,888.866c-3.951-11.674.5-24.307.119-31.876-.332-6.66-2.634-9.987-2.634-9.987s4.96,2.392,8.815,1.484c4.382-1.032,7.674,7.059,8.494,13.355,1.493,11.466-5.117,15.178-4.778,20.47S1689.757,888.866,1689.757,888.866Z" fill="#df8448" style="mix-blend-mode: multiply;isolation: isolate"/>
          <path id="Path_524" data-name="Path 524" d="M1698.014,883.742l-52.573,30.115,6.961,13.989,55.864-23.5,36.262-20.714-7.608-15.29Z" fill="#d9a33a" style="mix-blend-mode: multiply;isolation: isolate"/>
          <path id="Path_525" data-name="Path 525" d="M1706.935,901.166l-55.714,27.054-7.947-15.972,53.87-30.76Z" fill="#eeab72"/>
          <path id="Path_526" data-name="Path 526" d="M1744.857,881.546l-37.922,19.619-9.791-19.678,39.8-15.846Z" fill="#eeab72"/>
          <path id="Path_527" data-name="Path 527" d="M1744.857,881.546l-37.922,19.619-9.791-19.678,39.8-15.846Z" fill="#f0d084" style="mix-blend-mode: multiply;isolation: isolate"/>
          <path id="Path_528" data-name="Path 528" d="M1683.26,912.439l-14.271,6.916-8.755-17.6,14.1-7.25Z" fill="#df8448"/>
          <path id="Path_529" data-name="Path 529" d="M1722.411,892.924l10.224-5.306-9.009-17.4-10.122,4.8Z" fill="#e8ab85" style="mix-blend-mode: multiply;isolation: isolate"/>
        </g>
        <g id="Group_132" data-name="Group 132">
          <g id="Group_127" data-name="Group 127">
            <path id="Path_530" data-name="Path 530" d="M1736.319,846.163a.414.414,0,0,1,.743.061l3.1,7.963a.414.414,0,1,1-.772.3l-3.1-7.963A.41.41,0,0,1,1736.319,846.163Z" fill="#df8448" style="mix-blend-mode: multiply;isolation: isolate"/>
          </g>
          <g id="Group_128" data-name="Group 128">
            <path id="Path_531" data-name="Path 531" d="M1745.493,836.243a.415.415,0,0,1,.771.236l-1.122,18.41a.414.414,0,1,1-.827-.05l1.121-18.41A.417.417,0,0,1,1745.493,836.243Z" fill="#df8448" style="mix-blend-mode: multiply;isolation: isolate"/>
          </g>
          <g id="Group_129" data-name="Group 129">
            <path id="Path_532" data-name="Path 532" d="M1756.392,865.1a.417.417,0,0,1,.2-.171l7.881-3.306a.414.414,0,1,1,.321.764l-7.881,3.307a.415.415,0,0,1-.517-.594Z" fill="#df8448" style="mix-blend-mode: multiply;isolation: isolate"/>
          </g>
          <g id="Group_130" data-name="Group 130">
            <path id="Path_533" data-name="Path 533" d="M1753.595,859.671a.42.42,0,0,1,.136-.139l15.607-9.829a.414.414,0,1,1,.442.7l-15.607,9.83a.415.415,0,0,1-.578-.563Z" fill="#df8448" style="mix-blend-mode: multiply;isolation: isolate"/>
          </g>
          <g id="Group_131" data-name="Group 131">
            <path id="Path_534" data-name="Path 534" d="M1749.948,856.019l7.323-12.362a.415.415,0,0,1,.713.423l-7.322,12.362a.415.415,0,0,1-.714-.423Z" fill="#df8448" style="mix-blend-mode: multiply;isolation: isolate"/>
          </g>
        </g>
        <g id="Group_133" data-name="Group 133">
          <path id="Path_535" data-name="Path 535" d="M1756.149,825.821l-.768,2.263,1.43,1.916-2.391-.031-1.38,1.952-.71-2.281-2.283-.711,1.952-1.381-.031-2.389,1.916,1.43Z" fill="#f7dac2"/>
        </g>
        <g id="Group_134" data-name="Group 134">
          <path id="Path_536" data-name="Path 536" d="M1696.123,838.147l-1.646.215-.757,1.478-.713-1.5-1.64-.262,1.206-1.142-.257-1.64,1.459.794,1.48-.752-.3,1.633Z" fill="#f7dac2"/>
        </g>
        <g id="Group_135" data-name="Group 135">
          <path id="Path_537" data-name="Path 537" d="M1746.883,859.615l-1.124,3.314,2.093,2.8-3.5-.045-2.021,2.857-1.039-3.341-3.34-1.039,2.855-2.02-.044-3.5,2.8,2.094Z" fill="#f7dac2"/>
        </g>
        <g id="Group_136" data-name="Group 136">
          <path id="Path_538" data-name="Path 538" d="M1727.366,843.806l-5.807,4.43.359,7.3-6.008-4.154-6.83,2.593,2.094-7-4.577-5.692,7.3-.171,4-6.114,2.421,6.894Z" fill="#f7dac2"/>
        </g>
        <g id="Group_137" data-name="Group 137">
          <path id="Path_539" data-name="Path 539" d="M1788.46,862.806l-1.593,3.3,1.816,3.18-3.629-.495-2.465,2.708-.65-3.6-3.337-1.506,3.225-1.733.4-3.64,2.645,2.533Z" fill="#f7dac2"/>
        </g>
        <g id="Group_138" data-name="Group 138">
          <path id="Path_540" data-name="Path 540" d="M1776.9,901.663l-2.329.939-.546,2.452-1.614-1.925-2.5.237,1.333-2.128-1-2.305,2.437.61,1.883-1.664.174,2.508Z" fill="#f7dac2"/>
        </g>
        <g id="Group_139" data-name="Group 139">
          <path id="Path_541" data-name="Path 541" d="M1753.41,876.081l-1.388.56-.326,1.463-.963-1.148-1.49.141.794-1.269-.595-1.374,1.452.363,1.123-.991.1,1.494Z" fill="#f7dac2"/>
        </g>
        <g id="Group_140" data-name="Group 140">
          <path id="Path_542" data-name="Path 542" d="M1678.235,846.117l-1.457.587-.342,1.534-1.009-1.2-1.564.149.833-1.331-.624-1.441,1.524.38,1.177-1.039.109,1.568Z" fill="#f7dac2"/>
        </g>
        <g id="Group_141" data-name="Group 141">
          <path id="Path_543" data-name="Path 543" d="M1766.333,874.646a2.9,2.9,0,1,1,2.9-2.9A2.9,2.9,0,0,1,1766.333,874.646Zm0-4.52a1.625,1.625,0,1,0,1.626,1.625A1.628,1.628,0,0,0,1766.333,870.126Z" fill="#df8448" style="mix-blend-mode: multiply;isolation: isolate"/>
        </g>
        <g id="Group_142" data-name="Group 142">
          <path id="Path_544" data-name="Path 544" d="M1678.752,835.193a2.932,2.932,0,1,1,2.932-2.932A2.936,2.936,0,0,1,1678.752,835.193Zm0-4.593a1.662,1.662,0,1,0,1.662,1.661A1.664,1.664,0,0,0,1678.752,830.6Z" fill="#df8448" style="mix-blend-mode: multiply;isolation: isolate"/>
        </g>
        <g id="Group_143" data-name="Group 143" style="mix-blend-mode: multiply;isolation: isolate">
          <path id="Path_545" data-name="Path 545" d="M1736.454,902.822a4.527,4.527,0,1,1,4.527-4.527A4.532,4.532,0,0,1,1736.454,902.822Zm0-7.784a3.257,3.257,0,1,0,3.257,3.257A3.261,3.261,0,0,0,1736.454,895.038Z" fill="#df8448"/>
        </g>
        <g id="Group_144" data-name="Group 144">
          <path id="Path_546" data-name="Path 546" d="M1729.367,831.6a2.088,2.088,0,1,1,2.087-2.088A2.09,2.09,0,0,1,1729.367,831.6Zm0-2.906a.818.818,0,1,0,.817.818A.82.82,0,0,0,1729.367,828.7Z" fill="#df8448" style="mix-blend-mode: multiply;isolation: isolate"/>
        </g>
        <g id="Group_145" data-name="Group 145">
          <path id="Path_547" data-name="Path 547" d="M1783.927,884.62a2.677,2.677,0,1,1,2.677-2.678A2.68,2.68,0,0,1,1783.927,884.62Zm0-4.083a1.406,1.406,0,1,0,1.406,1.405A1.407,1.407,0,0,0,1783.927,880.537Z" fill="#df8448" style="mix-blend-mode: multiply;isolation: isolate"/>
        </g>
        <g id="Group_146" data-name="Group 146">
          <path id="Path_548" data-name="Path 548" d="M1744.443,890.879a1.867,1.867,0,1,1,1.866-1.866A1.869,1.869,0,0,1,1744.443,890.879Zm0-2.462a.6.6,0,1,0,.6.6A.6.6,0,0,0,1744.443,888.417Z" fill="#df8448" style="mix-blend-mode: multiply;isolation: isolate"/>
        </g>
      </g>
    </g>
  </g>
</svg>
