<svg xmlns="http://www.w3.org/2000/svg" width="61.944" height="61.944" viewBox="0 0 61.944 61.944"><g transform="translate(-1698.98 -34.283)"><circle data-name="Ellipse 1" cx="28.972" cy="28.972" r="28.972" transform="translate(1700.98 36.283)" fill="none" stroke="#002d72" stroke-miterlimit="10" stroke-width="4"/><path data-name="Path 1" d="M1727.369 68.585c0-4.551 5.413-7.134 5.413-11.644a3.656 3.656 0 00-3.649-3.936 3.1 3.1 0 00-3.2 2.132c1.435.2 2.337.943 2.337 2.378a2.711 2.711 0 01-2.91 2.829c-2.092 0-3.2-1.763-3.2-3.649 0-3.977 3.772-6.683 7.462-6.683 4.633 0 8.118 2.706 8.118 7.421 0 7.626-7.872 6.109-7.872 14.391h-2.5zm1.353 5.453a2.891 2.891 0 11-2.87 2.911 2.913 2.913 0 012.87-2.911z" fill="#002d72"/></g></svg>