<svg xmlns="http://www.w3.org/2000/svg" width="226.961" height="217.118" viewBox="0 0 226.961 217.118">
  <g id="Group_338" data-name="Group 338" transform="translate(-698.766 -823.832)">
    <path id="Path_1068" data-name="Path 1068" d="M1143.187,952.307c17.276-7.021,38.616-7.121,52.59-18.949,11.652-9.863,15.146-25.969,12.5-40.354a50.629,50.629,0,0,0-14.656-27.8c-13.738-12.946-34.8-16.777-54.434-16.336-11.172.251-22.31,1.192-33.421,2.245-2.737.26-5.464.588-8.2.855-2.469.242-4.921.389-7.413.564a101.909,101.909,0,0,0-15.488,2.244,84.091,84.091,0,0,0-10.587,3.132,65.881,65.881,0,0,0-22.987,14.112,34.159,34.159,0,0,0-6.887,9.166q-.476.946-.887,1.921c-3.434,8.157-2.819,17.36-.348,25.809s6.69,16.356,10.456,24.388c7.1,15.153,12.762,31.1,23.02,44.629,3.7,4.875,8.241,9.567,14.313,11.566,10.6,3.49,22.26-2.3,30.168-9.694s13.922-16.585,23.029-22.687A50.979,50.979,0,0,1,1143.187,952.307Z" transform="translate(397.99 -456.375) rotate(34)" fill="#87af46"/>
    <g id="Group_123" data-name="Group 123" transform="translate(347 -6.613)">
      <rect id="Rectangle_44" data-name="Rectangle 44" width="35.561" height="4.654" transform="translate(426.884 946.685) rotate(-45)" fill="#fff"/>
      <rect id="Rectangle_45" data-name="Rectangle 45" width="35.561" height="4.654" transform="translate(430.174 949.976) rotate(-44.999)" fill="#e5f5fe"/>
      <path id="Path_491" data-name="Path 491" d="M441.77,864.157a50.427,50.427,0,0,0-.3,71.01l71.308-71.308A50.428,50.428,0,0,0,441.77,864.157Z" transform="translate(3.512 0)" fill="#5e8f3f"/>
      <path id="Path_492" data-name="Path 492" d="M511.779,862.842c-.1-.1-.21-.2-.312-.3l-71.308,71.308c.1.1.195.21.3.312a50.433,50.433,0,0,0,71.323-71.323Z" transform="translate(4.825 1.314)" fill="#5d8146"/>
      <path id="Path_493" data-name="Path 493" d="M505.041,869.863a40.706,40.706,0,1,0,11.568,36.293A40.517,40.517,0,0,0,505.041,869.863Z" transform="translate(4.394 0.882)" fill="#81a256"/>
      <path id="Path_494" data-name="Path 494" d="M478.115,875.352c-16.829,11.411-5.668,45.576.057,60.053A21.115,21.115,0,0,1,479,938a40.7,40.7,0,0,0,26.418-65.177C497.22,870.347,488.388,868.385,478.115,875.352Z" transform="translate(7.727 2.112)" fill="#fff"/>
      <path id="Path_495" data-name="Path 495" d="M437.656,929.1a6.643,6.643,0,0,0-9.394,0L393.78,963.585a6.642,6.642,0,0,0,0,9.393l2.813,2.813,43.876-43.875Z" transform="translate(0 7.765)" fill="#5e8f3f"/>
      <path id="Path_496" data-name="Path 496" d="M440.037,931.484l-43.876,43.875,2.813,2.813a6.642,6.642,0,0,0,9.394,0l34.483-34.482a6.644,6.644,0,0,0,0-9.394Z" transform="translate(0.432 8.197)" fill="#5d8146"/>
      <path id="Path_497" data-name="Path 497" d="M471.832,894.311c-10.056,0-15.02,5.091-15.02,15.02,0-9.928-4.583-15.02-15.021-15.02,10.438,0,15.021-4.582,15.021-15.02C456.813,889.6,461.776,894.311,471.832,894.311Z" transform="translate(4.988 2.986)" fill="#fff"/>
      <path id="Path_498" data-name="Path 498" d="M446.4,887.17a46.937,46.937,0,0,1,52.364-18.079q-.406-.3-.82-.587a37.2,37.2,0,0,0-58.319,33.214A46.812,46.812,0,0,1,446.4,887.17Z" transform="translate(4.762 1.245)" fill="#e5f5fe"/>
    </g>
  </g>
</svg>
