<svg xmlns="http://www.w3.org/2000/svg" width="180.722" height="180.082" viewBox="0 0 180.722 180.082">
  <g id="Group_58" data-name="Group 58" transform="translate(-1319.883 -824.611)">
    <path id="Path_257" data-name="Path 257" d="M1414.46,910.116v94.577a94.576,94.576,0,0,1-94.577-94.577Z" fill="#e1703b" fill-rule="evenodd"/>
    <path id="Path_258" data-name="Path 258" d="M1414.46,829.346a80.77,80.77,0,1,1-80.77,80.77,80.77,80.77,0,0,1,80.77-80.77" fill="#f7dac2" fill-rule="evenodd"/>
    <path id="Path_259" data-name="Path 259" d="M1392.076,857.7a2.925,2.925,0,1,0-3.663-1.921,2.925,2.925,0,0,0,3.663,1.921m-46.222,17.562,25.735-8.029a5.816,5.816,0,0,1,4.026-4.839l8.594-2.682a2.51,2.51,0,0,0,1.644-3.134,5.606,5.606,0,1,1,10.7-3.34,2.511,2.511,0,0,0,3.135,1.644l8.595-2.682a5.816,5.816,0,0,1,6.063,1.691l25.735-8.029,36.247,116.173a80.822,80.822,0,0,1-96.883,20.893Z" fill="#e1703b" fill-rule="evenodd"/>
    <path id="Path_260" data-name="Path 260" d="M1352.731,867.781l95.347-25.549,31.129,116.177A80.838,80.838,0,0,1,1384.139,985Z" fill="#e99142" fill-rule="evenodd"/>
    <path id="Path_261" data-name="Path 261" d="M1357.766,871.572l87.847-23.538L1476.2,962.186c-5.436,7.418-13.064,13.334-20.531,17.646-21.043,12.153-44.576,14.671-67.065,6.826Z" fill="#fff" fill-rule="evenodd"/>
    <path id="Path_262" data-name="Path 262" d="M1422.449,849.1a5.787,5.787,0,0,1,3.169,3.755l1.5,5.6-44.256,11.859-1.5-5.6a5.789,5.789,0,0,1,.868-4.836Z" fill="#071a2e" fill-rule="evenodd" opacity="0.3"/>
    <path id="Path_263" data-name="Path 263" d="M1399.628,852.11a2.924,2.924,0,1,0-3.581-2.068,2.925,2.925,0,0,0,3.581,2.068m-16.638,4.021,8.7-2.33a2.509,2.509,0,0,0,1.769-3.065,5.606,5.606,0,0,1,10.831-2.9,2.509,2.509,0,0,0,3.064,1.77l8.7-2.33a5.813,5.813,0,0,1,7.1,4.1l1.5,5.6-44.255,11.858-1.5-5.6A5.814,5.814,0,0,1,1382.99,856.131Z" fill="#d8d8d8" fill-rule="evenodd"/>
    <rect id="Rectangle_29" data-name="Rectangle 29" width="45.817" height="3.206" transform="matrix(0.966, -0.259, 0.259, 0.966, 1379.562, 865.732)" fill="#adadad"/>
    <path id="Path_264" data-name="Path 264" d="M1383.956,888.112l-12.219,3.274,3.275,12.219,12.218-3.274Zm-13.286,2.07,13.609-3.647.695-.186.186.7,3.647,13.61.186.7-.7.186-13.609,3.646-.695.187-.187-.7-3.646-13.61-.186-.7Z" fill="#adadad" fill-rule="evenodd"/>
    <path id="Path_265" data-name="Path 265" d="M1380.671,900.86a1.1,1.1,0,0,1-.84-.11l-4.615-2.664a1.671,1.671,0,0,1,1.671-2.9l2.679,1.547,4.365-7.559a1.671,1.671,0,1,1,2.894,1.671l-5.481,9.495a1.1,1.1,0,0,1-.673.515" fill="#e1703b" fill-rule="evenodd"/>
    <path id="Path_266" data-name="Path 266" d="M1391.17,915.032l-12.219,3.274q1.636,6.109,3.274,12.219l12.219-3.274q-1.636-6.109-3.274-12.219m-13.287,2.07,13.609-3.647.7-.186.186.7q1.824,6.8,3.647,13.609l.186.7c-.232.062-.463.125-.7.186L1381.9,932.1l-.695.186-.186-.694q-1.824-6.805-3.647-13.61l-.186-.695Z" fill="#adadad" fill-rule="evenodd"/>
    <path id="Path_267" data-name="Path 267" d="M1387.884,927.78a1.1,1.1,0,0,1-.84-.11l-4.615-2.664a1.671,1.671,0,0,1,1.671-2.895l2.68,1.547q2.181-3.78,4.364-7.559a1.671,1.671,0,1,1,2.895,1.671q-2.742,4.747-5.482,9.495a1.105,1.105,0,0,1-.673.515" fill="#e1703b" fill-rule="evenodd"/>
    <path id="Path_268" data-name="Path 268" d="M1398.383,941.951l-12.219,3.274q1.637,6.111,3.274,12.219l12.219-3.274q-1.636-6.109-3.274-12.219m-13.287,2.07,13.609-3.646.7-.187c.062.232.125.464.187.7q1.822,6.805,3.646,13.61l.186.7-.695.186-13.609,3.647-.695.186-.186-.695q-1.824-6.806-3.647-13.609l-.186-.7Z" fill="#adadad" fill-rule="evenodd"/>
    <path id="Path_269" data-name="Path 269" d="M1395.1,954.7a1.1,1.1,0,0,1-.84-.11l-4.615-2.665a1.671,1.671,0,0,1,1.671-2.895l2.68,1.548,4.364-7.56a1.671,1.671,0,0,1,2.895,1.671q-2.742,4.747-5.482,9.495a1.107,1.107,0,0,1-.673.516" fill="#e1703b" fill-rule="evenodd"/>
    <path id="Path_270" data-name="Path 270" d="M1405.6,968.871l-12.219,3.274,3.274,12.219,12.219-3.274Zm-13.287,2.07,13.609-3.647.7-.186.186.7,3.646,13.61.186.695-.695.186-13.609,3.647-.695.186-.186-.7-3.647-13.609-.186-.7Z" fill="#adadad" fill-rule="evenodd"/>
    <path id="Path_271" data-name="Path 271" d="M1402.31,981.62a1.109,1.109,0,0,1-.84-.11l-4.615-2.665a1.671,1.671,0,0,1,1.671-2.895l2.68,1.547,4.364-7.559a1.671,1.671,0,1,1,2.9,1.671l-5.482,9.495a1.11,1.11,0,0,1-.673.516" fill="#e1703b" fill-rule="evenodd"/>
    <rect id="Rectangle_30" data-name="Rectangle 30" width="50.871" height="1.255" transform="matrix(0.966, -0.259, 0.259, 0.966, 1392.385, 891.752)" fill="#adadad"/>
    <rect id="Rectangle_31" data-name="Rectangle 31" width="48.054" height="1.255" transform="translate(1393.762 896.892) rotate(-15)" fill="#adadad"/>
    <rect id="Rectangle_32" data-name="Rectangle 32" width="40.189" height="1.255" transform="matrix(0.966, -0.259, 0.259, 0.966, 1391.008, 886.612)" fill="#e1703b"/>
    <rect id="Rectangle_33" data-name="Rectangle 33" width="51.692" height="1.255" transform="matrix(0.966, -0.259, 0.259, 0.966, 1399.598, 918.672)" fill="#adadad"/>
    <rect id="Rectangle_34" data-name="Rectangle 34" width="41.533" height="1.255" transform="translate(1400.975 923.812) rotate(-15)" fill="#adadad"/>
    <rect id="Rectangle_35" data-name="Rectangle 35" width="48.054" height="1.255" transform="matrix(0.966, -0.259, 0.259, 0.966, 1398.221, 913.532)" fill="#e1703b"/>
    <rect id="Rectangle_36" data-name="Rectangle 36" width="35.358" height="1.255" transform="translate(1406.811 945.591) rotate(-15)" fill="#adadad"/>
    <rect id="Rectangle_37" data-name="Rectangle 37" width="28.413" height="1.255" transform="matrix(0.966, -0.259, 0.259, 0.966, 1408.188, 950.732)" fill="#adadad"/>
    <rect id="Rectangle_38" data-name="Rectangle 38" width="48.054" height="1.255" transform="translate(1405.434 940.452) rotate(-15)" fill="#e1703b"/>
    <rect id="Rectangle_39" data-name="Rectangle 39" width="36.529" height="1.255" transform="matrix(0.966, -0.259, 0.259, 0.966, 1414.024, 972.511)" fill="#adadad"/>
    <rect id="Rectangle_40" data-name="Rectangle 40" width="40.513" height="1.255" transform="translate(1415.402 977.651) rotate(-15)" fill="#adadad"/>
    <rect id="Rectangle_41" data-name="Rectangle 41" width="41.533" height="1.255" transform="matrix(0.966, -0.259, 0.259, 0.966, 1412.647, 967.371)" fill="#e1703b"/>
    <path id="Path_272" data-name="Path 272" d="M1421.082,917.442l70.931-45.146a85.959,85.959,0,0,0-4.778-8.522l-71.392,45.438-15.778,14.933c-.513.483-.6.9-.43,1.164s.582.363,1.236.1q10.106-3.984,20.211-7.971" fill="#071a2e" fill-rule="evenodd" opacity="0.3"/>
    <path id="Path_273" data-name="Path 273" d="M1411.168,907.6l2,4.349,4.452,2.1,82.986-82.987-6.451-6.45Z" fill="#e1703b" fill-rule="evenodd"/>
    <path id="Path_274" data-name="Path 274" d="M1411.168,907.6l1.043,3.256L1496.3,826.76l-2.15-2.15Z" fill="#ffa357" fill-rule="evenodd"/>
    <rect id="Rectangle_42" data-name="Rectangle 42" width="118.828" height="4.214" transform="translate(1411.868 910.371) rotate(-45.002)" fill="#e99142"/>
    <path id="Path_275" data-name="Path 275" d="M1417.618,914.047l-12.086,8.169-2.856.323.323-2.855,8.169-12.087c1.679-1.678,2.934.537,1.255,2.216a1.772,1.772,0,0,1,2.529.329c.913.913,1.04,2.062.451,2.651,1.679-1.678,3.894-.424,2.215,1.254" fill="#efbaa8" fill-rule="evenodd"/>
    <path id="Path_276" data-name="Path 276" d="M1403,919.684a2.373,2.373,0,0,0,.793,1.614,2.685,2.685,0,0,0,1.74.918l-4.746,3.207c-.545.369-.943.363-1.15.156s-.213-.6.156-1.15Z" fill="#e1703b" fill-rule="evenodd"/>
    <path id="Path_277" data-name="Path 277" d="M1494.154,824.611l3.057.414,2.98,2.98.413,3.056-3.056-.413-2.98-2.98Z" fill="#efbaa8" fill-rule="evenodd"/>
    <path id="Path_278" data-name="Path 278" d="M1496.073,826.529c.268-.269,1.072.1,1.793.82s1.089,1.525.82,1.794-1.072-.1-1.793-.82-1.089-1.525-.82-1.794" fill="#e1703b" fill-rule="evenodd"/>
  </g>
</svg>
